# Blender 3.3.0
# www.blender.org
mtllib HaamuTalo.mtl
o Frame
v -5.499999 -0.200372 6.999999
v -5.499999 -0.000000 6.999999
v -5.499999 -0.200372 -6.999999
v -5.499999 -0.000000 -6.999999
v 5.499999 -0.200372 6.999999
v 5.499999 -0.000000 6.999999
v 5.499999 -0.200372 -6.999999
v 5.499999 -0.000000 -6.999999
v 0.000000 -0.200372 -6.999999
v 0.000000 -0.000000 -6.999999
v 0.000000 -0.200372 6.999999
v 0.000000 -0.000000 6.999999
v -5.499999 -0.200372 -0.534828
v -5.499999 -0.000000 -0.534828
v 5.499999 -0.200372 -0.534828
v 5.499999 -0.000000 -0.534828
v 0.000000 -0.000000 -1.250256
v 0.000000 -0.200372 -0.534828
v -5.499999 0.000000 -3.279543
v 5.499999 -0.200372 -3.279543
v -5.499999 -0.200372 -3.279543
v 5.499999 -0.000000 -3.279543
v 0.000000 -0.000000 -2.564115
v 0.000000 -0.200372 -3.279543
v -5.499999 3.260753 6.999999
v -5.499999 3.260753 -6.999999
v 5.499999 3.260753 6.999999
v 5.499999 3.260753 -6.999999
v 0.000000 3.260753 -6.999999
v 0.000000 3.260753 6.999999
v -5.499999 3.260753 -0.534828
v 5.499999 3.260753 -0.534828
v -5.499999 3.260753 -3.279543
v 5.499999 3.260753 -3.279543
v 0.000000 2.220381 -2.564115
v -5.499999 -0.000000 -3.104799
v 0.000000 -0.000000 -3.104799
v -5.499999 3.260753 -3.104799
v 0.000000 3.260753 -3.104799
v -5.671936 -0.000000 -3.382067
v -5.671936 -0.000000 -7.218828
v 0.000000 -0.000000 -7.218828
v 5.671936 -0.000000 -7.218828
v 5.671936 -0.000000 -0.551547
v 5.671936 -0.000000 7.218828
v 0.000000 -0.000000 7.218828
v -5.671936 -0.000000 7.218828
v -5.671936 -0.000000 -0.551547
v 5.671936 -0.000000 -3.382067
v -5.671936 3.260753 -3.382067
v -5.671936 3.260753 -7.218828
v 0.000000 3.260753 -7.218828
v 5.671936 3.260753 -7.218828
v 5.671936 3.260753 -0.551547
v 5.671936 3.260753 7.218828
v 0.000000 3.260753 7.218828
v -5.671936 3.260753 7.218828
v -5.671936 3.260753 -0.551547
v 5.671936 3.260753 -3.382067
v 0.000000 2.220381 -1.250256
v 0.298095 -0.000000 -3.279543
v 0.298095 -0.000000 -0.739192
v 0.298095 3.260753 -3.279543
v 0.298095 3.260752 -0.739192
v 5.499999 -0.000000 -0.739192
v 5.499999 3.260753 -0.739192
v 0.000000 -0.000000 -3.279543
v 0.000000 -0.000000 -0.534828
v 0.000000 3.260753 -3.279543
v 0.000000 3.260752 -0.534828
v 0.298095 0.006994 -1.250256
v 0.298095 2.220381 -1.250256
v 0.298095 -0.000000 -2.564115
v 0.298095 2.220381 -2.564115
v 0.298095 -0.000000 -6.999999
v 0.298095 3.260753 -6.999999
v -2.380496 -0.000000 7.218828
v -1.066636 -0.000000 7.218828
v -1.066636 2.213387 7.218828
v -2.380496 2.213387 7.218828
v -1.066636 -0.000000 6.999999
v -2.380496 -0.000000 6.999999
v -2.380496 2.213387 6.999999
v -1.066636 2.213387 6.999999
v -3.341448 2.319000 -3.104799
v -2.027589 2.318999 -3.104799
v -3.341448 0.105612 -3.104799
v -2.027589 0.105612 -3.104799
v -3.341448 2.319000 -3.279543
v -2.027589 2.318999 -3.279543
v -3.341448 0.105612 -3.279543
v -2.027589 0.105612 -3.279543
vn -1.0000 -0.0000 -0.0000
vn -0.0000 -0.0000 -1.0000
vn 1.0000 -0.0000 -0.0000
vn -0.0000 -0.0000 1.0000
vn -0.0000 -1.0000 -0.0000
vn -0.0000 1.0000 -0.0000
vn -0.0000 -0.9993 0.0363
vn -0.0000 -1.0000 -0.0089
vn -0.5654 -0.0000 -0.8248
vt 0.375000 1.000000
vt 0.125000 0.750000
vt 0.375000 0.000000
vt 0.625000 0.000000
vt 0.875000 0.750000
vt 0.625000 1.000000
vt 0.375000 0.250000
vt 0.125000 0.500000
vt 0.875000 0.500000
vt 0.625000 0.250000
vt 0.375000 0.750000
vt 0.625000 0.750000
vt 0.375000 0.500000
vt 0.625000 0.500000
vt 0.375000 0.375000
vt 0.250000 0.500000
vt 0.750000 0.500000
vt 0.625000 0.375000
vt 0.000000 0.000000
vt 0.750000 0.566437
vt 0.250000 0.750000
vt 0.375000 0.875000
vt 0.625000 0.875000
vt 0.750000 0.750000
vt 0.125000 0.615450
vt 0.375000 0.134550
vt 0.625000 0.134550
vt 0.875000 0.615450
vt 0.375000 0.615450
vt 0.625000 0.615450
vt 0.000000 0.000000
vt 0.250000 0.615450
vt 0.000000 0.000000
vt 0.625000 0.183563
vt 0.875000 0.566437
vt 0.375000 0.566437
vt 0.125000 0.566437
vt 0.375000 0.183563
vt 0.625000 0.566437
vt 0.000000 0.000000
vt 0.250000 0.566437
vt 0.000000 0.000000
vt 0.000000 0.000000
vt 0.000000 0.000000
vt 0.000000 0.000000
vt 0.000000 0.000000
vt 0.000000 0.000000
vt 0.000000 0.000000
vt 0.000000 0.000000
vt 0.000000 0.000000
vt 0.000000 0.000000
vt 0.000000 0.000000
vt 0.000000 0.000000
vt 0.875000 0.566437
vt 0.000000 0.000000
vt 0.750000 0.566437
vt 0.875000 0.566437
vt 0.000000 0.000000
vt 0.750000 0.566437
vt 0.000000 0.000000
vt 0.875000 0.566437
vt 0.625000 0.183563
vt 0.625000 0.250000
vt 0.875000 0.500000
vt 0.750000 0.500000
vt 0.625000 0.500000
vt 0.625000 0.615450
vt 0.625000 0.750000
vt 0.625000 0.875000
vt 0.750000 0.750000
vt 0.625000 0.000000
vt 0.875000 0.750000
vt 0.875000 0.615450
vt 0.625000 0.134550
vt 0.625000 0.566437
vt 0.000000 0.000000
vt 0.625000 0.183563
vt 0.625000 0.250000
vt 0.875000 0.500000
vt 0.000000 0.000000
vt 0.750000 0.500000
vt 0.000000 0.000000
vt 0.625000 0.500000
vt 0.000000 0.000000
vt 0.625000 0.615450
vt 0.000000 0.000000
vt 0.625000 0.750000
vt 0.000000 0.000000
vt 0.750000 0.750000
vt 0.000000 0.000000
vt 0.875000 0.750000
vt 0.000000 0.000000
vt 0.000000 0.000000
vt 0.875000 0.615450
vt 0.625000 0.134550
vt 0.625000 0.566437
vt 0.000000 0.000000
vt 0.000000 0.000000
vt 0.750000 0.566437
vt 0.000000 0.000000
vt 0.750000 0.615450
vt 0.000000 0.000000
vt 0.750000 0.566437
vt 0.750000 0.615450
vt 0.000000 0.000000
vt 0.625000 0.615450
vt 0.625000 0.615450
vt 0.000000 0.000000
vt 0.000000 0.000000
vt 0.750000 0.566437
vt 0.000000 0.000000
vt 0.750000 0.615450
vt 0.000000 0.000000
vt 0.000000 0.000000
vt 0.750000 0.602674
vt 0.750000 0.602674
vt 0.750000 0.579212
vt 0.750000 0.579212
vt 0.000000 0.000000
vt 0.750000 0.566437
vt 0.000000 0.000000
vt 0.750000 0.566437
vt 0.802462 0.750000
vt 0.000000 0.000000
vt 0.773507 0.750000
vt 0.000000 0.000000
vt 0.773507 0.750000
vt 0.000000 0.000000
vt 0.802462 0.750000
vt 0.000000 0.000000
vt 0.625000 0.899242
vt 0.000000 0.000000
vt 0.625000 0.929102
vt 0.000000 0.000000
vt 0.200752 0.298433
vt 0.000000 0.000000
vt 0.200752 0.288844
vt 0.000000 0.000000
vt 0.825942 0.566437
vt 0.000000 0.000000
vt 0.796082 0.566437
vt 0.000000 0.000000
vt 0.825942 0.566437
vt 0.000000 0.000000
vt 0.796081 0.566437
vt 0.000000 0.000000
vt 0.000000 0.000000
vt 0.000000 0.000000
vt 0.000000 0.000000
vt 0.000000 0.000000
s 0
usemtl 
f 21/38/1 19/34/1 4/10/1 3/7/1
f 9/15/2 10/18/2 8/14/2 7/13/2
f 15/29/3 16/30/3 6/12/3 5/11/3
f 11/22/4 12/23/4 2/6/4 1/1/4
f 18/32/5 15/29/5 5/11/5 11/21/5
f 68/112/6 14/28/6 2/5/6 12/24/6
f 16/30/6 68/112/6 12/24/6 6/12/6
f 13/25/5 18/32/5 11/21/5 1/2/5
f 5/11/4 6/12/4 12/23/4 11/22/4
f 3/7/2 4/10/2 10/18/2 9/15/2
f 21/37/5 24/41/5 18/32/5 13/25/5
f 22/39/6 67/110/6 68/112/6 16/30/6
f 67/110/6 19/35/6 14/28/6 68/112/6
f 24/41/5 20/36/5 15/29/5 18/32/5
f 20/36/3 22/39/3 16/30/3 15/29/3
f 1/3/1 2/4/1 14/27/1 13/26/1
f 7/13/3 8/14/3 22/39/3 20/36/3
f 9/16/5 7/13/5 20/36/5 24/41/5
f 10/17/6 4/9/6 19/35/6 67/110/6
f 8/14/6 10/17/6 67/110/6 22/39/6
f 3/8/5 9/16/5 24/41/5 21/37/5
f 13/26/1 14/27/1 19/34/1 21/38/1
f 29/46/6 28/45/6 53/84/6 52/82/6
f 6/12/5 16/30/5 44/67/5 45/68/5
f 12/23/5 6/12/5 45/68/5 46/69/5
f 31/48/6 33/50/6 50/76/6 58/93/6
f 33/50/6 26/43/6 51/80/6 50/76/6
f 34/51/6 32/49/6 54/86/6 59/97/6
f 14/27/5 2/4/5 47/71/5 48/74/5
f 10/17/5 4/9/5 41/64/5 42/65/5
f 25/42/6 31/48/6 58/93/6 57/92/6
f 22/39/5 8/14/5 43/66/5 49/75/5
f 69/113/3 39/60/3 37/55/3 67/109/3
f 37/56/4 39/59/4 38/57/4 36/54/4 87/143/4 85/139/4 86/141/4 88/145/4
f 87/143/4 36/54/4 37/56/4 88/145/4
f 19/33/1 36/53/1 38/58/1 33/50/1
f 33/50/6 38/58/6 39/60/6 69/113/6
f 67/110/5 37/56/5 36/54/5 19/35/5
f 91/149/2 19/33/2 33/50/2 69/113/2 67/109/2 92/150/2 90/148/2 89/147/2
f 67/109/2 19/33/2 91/149/2 92/150/2
f 48/73/1 47/72/1 57/91/1 58/94/1
f 79/127/4 78/125/4 46/70/4 56/89/4 57/91/4 47/72/4 77/123/4 80/129/4
f 77/123/7 47/72/7 46/70/7 78/125/7
f 43/66/3 53/83/3 59/96/3 49/75/3
f 45/68/3 44/67/3 54/85/3 55/87/3
f 46/70/4 45/68/4 55/87/4 56/89/4
f 48/74/1 58/95/1 50/77/1 40/62/1
f 43/66/2 42/65/2 52/81/2 53/83/2
f 40/62/1 50/77/1 51/78/1 41/63/1
f 49/75/3 59/96/3 54/85/3 44/67/3
f 42/65/2 41/64/2 51/79/2 52/81/2
f 16/30/5 22/39/5 49/75/5 44/67/5
f 28/45/6 34/51/6 59/97/6 53/84/6
f 32/49/6 27/44/6 55/88/6 54/86/6
f 4/9/5 19/35/5 40/61/5 41/64/5
f 19/34/5 14/27/5 48/74/5 40/62/5
f 30/47/6 25/42/6 57/92/6 56/90/6
f 26/43/6 29/46/6 52/82/6 51/80/6
f 2/5/5 12/24/5 46/70/5 47/72/5
f 27/44/6 30/47/6 56/90/6 55/88/6
f 8/14/5 10/17/5 42/65/5 43/66/5
f 22/39/1 16/30/1 32/49/1 34/51/1
f 8/14/1 22/39/1 34/51/1 28/45/1
f 10/18/4 8/14/4 28/45/4 29/46/4
f 4/10/4 10/18/4 29/46/4 26/43/4
f 19/34/3 4/10/3 26/43/3 33/50/3
f 14/28/3 19/35/3 33/50/3 31/48/3
f 2/5/3 14/28/3 31/48/3 25/42/3
f 81/131/8 12/23/8 2/6/8 82/133/8
f 82/133/2 2/6/2 25/42/2 30/47/2 12/23/2 81/131/2 84/137/2 83/135/2
f 6/12/2 12/24/2 30/47/2 27/44/2
f 16/30/1 6/12/1 27/44/1 32/49/1
f 70/114/6 64/105/6 63/102/6 69/113/6
f 74/118/3 73/117/3 61/99/3 63/103/3 64/104/3 62/101/3 71/115/3 72/116/3
f 68/111/9 70/114/9 64/105/9 62/100/9
f 63/102/6 76/121/6 29/46/6 69/113/6
f 32/49/3 16/30/3 65/106/3 66/108/3
f 65/106/2 62/101/2 64/104/2 66/107/2
f 16/30/5 68/112/5 62/101/5 65/106/5
f 70/114/6 32/49/6 66/108/6 64/105/6
f 16/30/4 32/49/4 70/114/4 68/111/4
f 17/31/3 23/40/3 67/109/3 68/111/3
f 23/40/1 35/52/1 69/113/1 67/109/1
f 60/98/1 17/31/1 68/111/1 70/114/1
f 35/52/1 60/98/1 70/114/1 69/113/1
f 60/98/2 72/116/2 71/115/2 17/31/2
f 72/116/5 60/98/5 35/52/5 74/118/5
f 35/52/4 23/40/4 73/117/4 74/118/4
f 73/117/5 62/101/5 68/112/5 67/110/5 61/99/5
f 29/46/2 76/121/2 75/119/2 10/19/2
f 61/99/3 75/120/3 76/122/3 63/103/3
f 69/113/1 29/46/1 10/19/1 67/109/1
f 67/110/5 10/20/5 75/120/5 61/99/5
f 82/134/6 77/124/6 78/126/6 81/132/6
f 79/128/5 80/130/5 83/136/5 84/138/5
f 83/136/3 80/130/3 77/124/3 82/134/3
f 81/132/1 78/126/1 79/128/1 84/138/1
f 91/149/6 87/144/6 88/146/6 92/150/6
f 86/142/5 85/140/5 89/147/5 90/148/5
f 89/147/3 85/140/3 87/144/3 91/149/3
f 86/142/1 90/148/1 92/150/1 88/146/1
